<svg xmlns="http://www.w3.org/2000/svg" viewBox="0 0 1200 700" preserveAspectRatio="xMidYMid meet" role="img" aria-label="Map of the Dominican Republic showing AVE-RD project locations">
  <path d="M127.4,100.7L133.1,101.7L138.5,103.9L137.3,98.9L132.0,89.1L132.3,86.6L132.3,84.7L124.3,84.4L123.3,81.7L126.5,77.7L131.2,73.6L132.6,72.8L134.1,72.6L137.5,72.6L139.5,72.0L142.8,68.7L144.6,67.5L148.1,66.3L150.8,65.8L153.4,64.8L156.8,62.3L154.8,59.1L154.5,56.3L156.0,54.3L159.9,53.5L162.2,53.8L165.8,55.1L168.1,55.4L169.1,54.8L171.1,52.4L172.2,51.9L202.9,50.0L210.7,50.9L218.4,53.1L246.9,65.0L255.3,66.3L263.2,63.9L269.2,67.4L273.5,69.0L286.8,69.3L290.3,68.6L291.1,66.6L291.2,64.0L292.8,61.4L296.3,60.3L298.8,62.7L302.2,69.3L304.5,68.2L306.3,67.0L307.5,65.5L308.3,63.9L305.7,63.2L305.2,62.9L305.2,62.3L304.2,60.5L308.9,62.0L312.8,61.8L316.8,61.0L321.6,60.5L324.7,58.7L330.2,50.3L333.9,48.5L338.4,47.5L348.1,43.7L353.3,43.1L358.2,44.1L362.8,46.3L365.2,49.4L363.7,53.5L369.5,55.4L371.7,55.4L370.2,51.5L369.5,50.0L383.9,51.9L388.2,51.6L397.0,49.9L400.4,50.0L404.1,52.0L417.2,64.6L418.3,67.0L416.7,69.3L428.0,69.4L432.3,71.1L443.7,78.8L454.5,83.2L466.0,86.4L479.3,88.0L497.3,88.1L498.9,87.4L500.4,85.7L504.0,83.7L508.1,82.0L511.1,81.3L522.7,84.2L541.0,99.7L551.9,108.9L556.8,111.8L562.3,114.0L568.4,115.5L582.0,116.6L593.0,119.8L613.0,123.0L617.5,122.9L620.5,122.0L623.1,120.2L634.0,110.8L639.7,108.7L656.2,108.9L664.3,108.3L668.0,108.7L672.6,110.8L682.7,119.5L686.0,125.3L685.8,131.8L680.9,145.7L686.9,147.7L689.1,152.2L689.1,163.7L689.8,168.8L691.7,172.8L711.6,196.7L720.5,203.7L721.6,204.6L731.9,207.9L737.9,207.1L749.5,203.5L755.5,202.7L768.9,202.3L774.9,201.2L781.0,199.3L789.8,194.5L793.2,193.9L796.3,194.5L802.7,197.0L806.6,197.5L813.8,196.1L817.0,195.8L818.7,195.8L820.3,196.2L821.5,196.9L822.0,198.4L822.9,199.6L825.0,199.1L828.3,197.5L845.6,203.2L850.7,206.2L854.1,200.7L859.6,196.6L873.1,190.6L881.9,188.5L883.9,191.4L881.6,197.4L877.2,204.6L883.2,206.3L889.9,206.3L896.4,205.0L901.9,202.7L903.6,208.3L899.7,212.6L894.4,216.6L891.7,220.9L890.4,225.5L886.9,229.6L881.7,232.7L875.2,234.0L851.7,230.5L826.1,232.1L820.0,230.7L808.9,226.2L770.9,222.5L766.6,223.4L764.9,226.8L764.0,238.8L761.7,249.1L762.6,253.0L765.5,254.6L769.2,256.8L785.7,254.7L791.4,256.4L798.5,254.6L812.5,259.0L819.9,258.3L818.1,257.0L815.7,255.9L812.9,255.0L809.6,254.7L809.6,253.0L825.5,252.3L830.1,253.0L835.4,256.1L839.5,263.9L844.6,266.9L849.7,268.0L860.0,269.1L887.7,275.1L899.2,277.6L903.9,277.3L909.5,274.8L907.7,272.9L903.9,271.1L903.9,268.7L909.3,267.4L913.9,270.8L920.2,279.1L924.3,280.9L928.8,282.0L932.7,283.4L934.7,286.1L938.2,283.8L945.5,281.1L949.0,279.1L946.7,277.0L947.8,276.5L950.5,276.5L953.0,275.7L956.2,273.1L957.1,272.1L958.3,272.0L969.0,272.5L975.2,273.5L980.9,275.1L985.8,277.3L986.4,278.0L986.4,278.9L986.7,279.9L987.9,280.8L994.0,282.5L994.5,282.4L1005.2,284.2L1011.9,284.4L1014.6,285.2L1015.1,285.5L1017.5,286.9L1020.3,288.1L1025.6,288.5L1028.7,289.4L1063.4,315.4L1076.1,327.8L1094.1,338.9L1107.1,346.1L1110.7,347.5L1112.6,348.5L1126.1,359.0L1143.2,367.3L1151.5,377.5L1149.8,387.4L1121.8,421.8L1119.8,423.2L1117.8,424.9L1116.9,427.3L1117.4,436.1L1116.9,438.6L1113.5,442.9L1108.6,444.9L1102.4,445.5L1095.3,445.5L1089.8,444.1L1078.0,437.8L1073.7,436.7L1068.8,439.4L1069.5,443.5L1071.1,448.3L1068.6,453.2L1064.9,457.2L1062.6,461.8L1058.0,476.5L1056.3,479.1L1052.9,480.1L1027.7,481.7L1022.5,480.2L1021.9,471.0L1014.6,458.7L1004.7,446.8L995.9,438.6L986.5,433.4L974.1,429.1L961.6,427.7L947.2,432.5L925.4,433.3L919.8,432.5L906.7,428.9L900.7,428.1L895.6,426.8L887.0,420.8L880.4,419.5L874.6,420.4L868.7,422.0L862.8,422.4L856.8,419.5L850.6,424.1L811.8,426.5L800.2,430.0L794.1,430.1L777.7,421.0L771.1,418.1L766.7,417.7L764.8,420.1L765.0,422.9L765.5,425.8L764.7,428.1L762.0,428.8L757.8,428.8L754.0,428.2L752.3,427.3L747.3,420.4L744.9,418.6L742.7,418.0L696.6,413.9L688.3,414.2L687.0,414.3L682.2,415.4L672.8,419.1L665.1,423.3L662.2,424.4L654.2,426.5L651.1,427.8L647.3,429.4L640.6,434.1L635.6,440.5L633.6,448.1L632.0,450.2L625.2,453.1L623.6,455.0L622.4,457.7L612.3,465.3L605.1,472.1L601.0,474.9L599.1,474.2L591.9,474.4L586.3,475.1L582.6,476.8L577.4,474.2L571.7,473.2L533.5,473.3L527.1,475.0L514.8,480.6L507.8,481.8L487.1,481.8L482.3,480.2L481.9,478.1L484.1,476.4L486.9,474.9L488.3,473.3L487.4,470.6L485.4,469.1L483.3,468.1L481.0,465.6L475.3,462.6L474.0,460.3L474.8,457.8L476.5,456.6L478.5,455.8L480.1,454.0L481.5,448.9L481.7,443.6L480.9,438.9L479.2,435.9L472.6,429.2L468.7,427.0L461.8,424.8L455.9,423.7L448.4,423.2L442.1,424.6L439.4,429.0L440.4,434.3L439.6,436.5L430.7,443.5L428.3,444.8L425.1,445.5L421.6,445.4L415.4,443.9L412.6,443.7L410.3,444.4L406.2,446.8L403.4,447.3L399.6,446.9L398.3,447.5L395.3,449.8L394.5,450.7L392.6,453.9L392.2,455.0L391.4,456.0L387.4,457.0L386.0,457.6L378.0,465.2L373.8,467.3L366.7,468.0L363.8,467.1L362.0,465.1L360.4,462.5L358.4,460.3L355.3,458.4L352.1,457.3L339.2,455.0L333.2,454.9L328.5,456.4L326.6,460.3L326.0,462.4L323.4,466.1L322.7,469.0L323.3,472.2L324.8,474.0L326.7,475.6L328.9,478.4L333.7,492.1L335.3,494.5L335.3,497.5L329.5,504.6L324.6,514.8L296.3,548.2L293.8,553.9L292.6,556.0L289.8,557.5L283.8,560.0L280.2,562.6L277.5,565.0L275.5,568.1L273.6,572.3L271.4,571.7L270.6,571.2L269.3,570.4L268.9,572.3L268.4,572.9L267.3,573.7L269.3,573.7L268.1,575.8L266.6,577.5L264.7,578.5L262.3,578.9L261.2,579.9L259.3,585.0L258.1,586.8L254.5,591.1L244.4,614.9L241.3,619.5L229.0,633.5L226.0,632.3L223.4,630.4L223.3,629.3L220.4,627.3L199.8,599.8L194.8,595.5L184.8,592.3L160.9,594.9L150.7,592.9L153.6,591.1L163.1,583.1L165.2,579.8L164.7,574.4L163.5,570.6L158.9,563.3L155.6,559.4L155.0,557.9L154.8,554.9L156.8,545.3L154.6,540.9L149.4,536.0L138.5,528.6L121.8,523.5L125.3,515.9L126.4,511.5L125.8,504.2L126.0,499.9L125.2,497.1L122.0,489.9L121.6,487.5L122.4,482.5L124.8,477.7L138.0,459.3L138.2,459.1L141.7,454.2L141.1,453.5L138.3,451.5L134.1,449.2L118.0,444.3L106.8,438.3L104.3,436.0L99.8,430.6L97.3,428.8L85.6,426.5L81.2,424.5L79.4,419.8L80.5,417.0L82.7,416.0L84.3,414.6L83.6,410.8L81.7,408.4L54.6,386.1L52.0,381.9L57.1,378.8L68.2,376.9L90.7,380.3L102.2,377.1L106.1,373.7L112.3,365.3L116.4,361.6L117.1,361.2L119.2,360.2L127.2,356.2L131.4,353.4L135.0,348.7L137.0,344.4L138.5,339.8L138.9,335.0L136.5,325.1L136.2,314.8L134.5,310.1L132.3,307.8L125.5,302.8L122.7,300.2L118.5,293.1L115.8,291.3L108.8,291.1L101.4,293.1L96.0,293.8L95.1,289.4L100.3,286.6L115.6,283.3L119.5,281.3L132.5,269.8L141.4,259.7L145.9,256.5L156.1,250.6L159.8,246.2L161.4,241.8L162.7,226.7L158.9,225.3L139.6,217.7L129.7,209.6L128.5,208.6L123.2,202.6L121.7,197.5L123.6,195.9L131.7,192.2L134.5,190.5L138.3,182.7L140.0,181.3L143.4,175.5L143.6,164.2L140.0,144.4L131.7,128.6L130.3,122.8L130.8,116.2L131.1,112.1L130.0,107.7L127.4,100.7Z M197.0,648.5L192.0,646.2L191.9,640.7L194.6,634.4L198.0,629.3L202.2,631.2L206.5,633.8L214.1,639.7L209.5,640.9L202.1,647.0L197.0,648.5Z M1051.3,490.6L1066.7,490.2L1070.8,491.4L1073.8,494.7L1077.1,499.6L1079.3,504.2L1078.8,506.2L1074.3,505.4L1064.6,501.8L1059.6,501.0L1054.3,501.5L1045.0,503.9L1040.0,504.4L1029.5,502.2L1022.0,496.7L1017.2,489.9L1014.6,483.7L1019.0,482.6L1024.2,483.4L1029.4,485.5L1033.9,488.1L1037.3,489.1L1051.3,490.6Z" fill-rule="evenodd" class="map-country" />
  <g class="map-pins">
    <circle cx="673" cy="410" r="6" class="map-pin"><title>Santo Domingo</title></circle>
    <circle cx="443" cy="167" r="6" class="map-pin"><title>Santiago</title></circle>
    <circle cx="494" cy="224" r="6" class="map-pin"><title>La Vega</title></circle>
    <circle cx="860" cy="416" r="6" class="map-pin"><title>San Pedro de Macorís</title></circle>
    <circle cx="447" cy="80" r="6" class="map-pin"><title>Puerto Plata</title></circle>
    <circle cx="960" cy="425" r="6" class="map-pin"><title>La Romana</title></circle>
    <circle cx="1038" cy="377" r="6" class="map-pin"><title>Higüey</title></circle>
    <circle cx="324" cy="481" r="6" class="map-pin"><title>Barahona</title></circle>
    <circle cx="621" cy="428" r="6" class="map-pin"><title>San Cristóbal</title></circle>
    <circle cx="530" cy="296" r="6" class="map-pin"><title>Bonao</title></circle>
    <circle cx="432" cy="418" r="6" class="map-pin"><title>Azua</title></circle>
    <circle cx="330" cy="140" r="6" class="map-pin"><title>Mao</title></circle>
    <circle cx="578" cy="204" r="6" class="map-pin"><title>San Francisco de Macorís</title></circle>
    <circle cx="553" cy="463" r="6" class="map-pin"><title>Baní</title></circle>
    <circle cx="701" cy="184" r="6" class="map-pin"><title>Nagua</title></circle>
    <circle cx="607" cy="266" r="6" class="map-pin"><title>Cotuí</title></circle>
    <circle cx="495" cy="181" r="6" class="map-pin"><title>Moca</title></circle>
    <circle cx="527" cy="184" r="6" class="map-pin"><title>Salcedo</title></circle>
    <circle cx="873" cy="341" r="6" class="map-pin"><title>Hato Mayor</title></circle>
    <circle cx="716" cy="329" r="6" class="map-pin"><title>Monte Plata</title></circle>
    <circle cx="851" cy="229" r="6" class="map-pin"><title>Samaná</title></circle>
    <circle cx="429" cy="303" r="6" class="map-pin"><title>Constanza</title></circle>
    <circle cx="463" cy="251" r="6" class="map-pin"><title>Jarabacoa</title></circle>
    <circle cx="143" cy="142" r="6" class="map-pin"><title>Dajabón</title></circle>
    <circle cx="143" cy="313" r="6" class="map-pin"><title>Comendador</title></circle>
    <circle cx="130" cy="524" r="6" class="map-pin"><title>Pedernales</title></circle>
    <circle cx="249" cy="158" r="6" class="map-pin"><title>Sabaneta</title></circle>
    <circle cx="659" cy="397" r="6" class="map-pin"><title>Hato Nuevo</title></circle>
    <circle cx="768" cy="419" r="6" class="map-pin"><title>Boca Chica</title></circle>
    <circle cx="497" cy="89" r="6" class="map-pin"><title>Sosúa</title></circle>
  </g>
</svg>