<svg xmlns="http://www.w3.org/2000/svg" viewBox="0 0 1400 820" preserveAspectRatio="xMidYMid meet" role="img" aria-label="Map of the Dominican Republic showing AVE-RD project locations">
  <defs>
    <filter id="watercolor" x="-5%" y="-5%" width="110%" height="110%"><feTurbulence type="fractalNoise" baseFrequency="0.012" numOctaves="2" seed="7" /><feDisplacementMap in="SourceGraphic" scale="6" /></filter>
    <filter id="pin-halo" x="-50%" y="-50%" width="200%" height="200%"><feGaussianBlur stdDeviation="3" /></filter>
  </defs>
  <g filter="url(#watercolor)"><path d="M159.9,128.5L166.4,129.7L172.5,132.2L171.2,126.5L165.2,115.5L165.5,112.7L165.5,110.5L156.4,110.1L155.2,107.1L158.9,102.6L164.3,97.9L165.8,97.1L167.6,96.8L171.4,96.9L173.7,96.1L177.5,92.4L179.5,91.0L183.6,89.7L186.6,89.1L189.6,88.0L193.5,85.2L191.2,81.6L190.8,78.4L192.6,76.1L197.0,75.2L199.7,75.5L203.7,77.0L206.3,77.3L207.5,76.7L209.9,74.1L211.1,73.5L246.2,71.3L255.1,72.3L263.9,74.8L296.5,88.2L306.0,89.7L315.1,86.9L322.0,90.9L326.9,92.7L342.0,93.1L346.0,92.3L346.9,90.1L347.1,87.2L348.9,84.2L352.9,82.9L355.8,85.6L359.6,93.1L362.3,91.8L364.3,90.4L365.7,88.8L366.6,86.9L363.7,86.2L363.1,85.9L363.0,85.1L361.9,83.2L367.3,84.9L371.8,84.7L376.3,83.7L381.9,83.2L385.4,81.1L391.7,71.7L395.8,69.6L401.0,68.5L412.1,64.1L418.1,63.5L423.6,64.6L428.9,67.1L431.7,70.7L429.9,75.2L436.5,77.3L439.1,77.3L437.4,72.9L436.5,71.3L453.0,73.5L457.9,73.1L468.0,71.2L471.9,71.3L476.1,73.6L491.1,87.8L492.4,90.5L490.5,93.1L503.4,93.2L508.3,95.1L521.3,103.8L533.7,108.8L546.8,112.4L562.1,114.2L582.7,114.4L584.4,113.5L586.2,111.6L590.3,109.4L594.9,107.5L598.4,106.6L611.7,109.9L632.5,127.4L645.0,137.8L650.7,141.0L656.9,143.5L663.9,145.2L679.4,146.5L692.0,150.1L714.9,153.7L720.0,153.6L723.4,152.6L726.4,150.5L738.9,140.0L745.4,137.6L764.3,137.8L773.5,137.1L777.7,137.5L782.9,140.0L794.6,149.7L798.2,156.4L798.0,163.6L792.4,179.3L799.3,181.6L801.9,186.7L801.8,199.7L802.6,205.4L804.8,209.9L827.5,236.9L837.7,244.8L839.0,245.8L850.7,249.6L857.6,248.6L870.9,244.6L877.7,243.7L893.1,243.2L899.9,242.1L906.9,239.8L916.9,234.5L920.8,233.8L924.4,234.4L931.6,237.2L936.1,237.8L944.4,236.2L947.9,235.9L949.9,236.0L951.8,236.3L953.1,237.2L953.7,238.8L954.8,240.2L957.1,239.7L960.9,237.8L980.7,244.3L986.5,247.6L990.4,241.4L996.7,236.8L1012.2,230.0L1022.1,227.6L1024.5,230.9L1021.8,237.7L1016.8,245.8L1023.6,247.8L1031.3,247.8L1038.8,246.2L1045.0,243.7L1047.0,250.0L1042.6,254.9L1036.4,259.4L1033.3,264.3L1031.9,269.4L1027.9,274.1L1021.9,277.5L1014.5,279.0L987.7,275.1L958.3,276.9L951.4,275.3L938.8,270.3L895.3,266.0L890.4,267.1L888.5,270.9L887.4,284.5L884.8,296.1L885.9,300.4L889.1,302.3L893.4,304.7L912.2,302.4L918.7,304.3L926.8,302.3L942.9,307.2L951.3,306.5L949.3,305.0L946.5,303.7L943.3,302.8L939.5,302.4L939.5,300.4L957.7,299.7L963.0,300.4L969.1,304.0L973.8,312.8L979.5,316.2L985.4,317.5L997.1,318.6L1028.8,325.4L1041.9,328.2L1047.3,327.9L1053.7,325.1L1051.6,323.0L1047.4,320.9L1047.3,318.2L1053.4,316.8L1058.8,320.6L1066.0,329.9L1070.6,332.0L1075.8,333.3L1080.2,334.8L1082.5,337.9L1086.6,335.2L1094.9,332.2L1098.8,329.9L1096.2,327.6L1097.5,327.0L1100.5,327.0L1103.5,326.2L1107.0,323.2L1108.1,322.0L1109.5,322.0L1121.7,322.5L1128.8,323.6L1135.3,325.5L1141.0,327.9L1141.6,328.7L1141.6,329.8L1141.9,330.9L1143.3,331.8L1150.3,333.8L1150.9,333.7L1163.1,335.7L1170.7,336.0L1173.8,336.9L1174.4,337.2L1177.2,338.8L1180.3,340.2L1186.4,340.5L1189.9,341.6L1229.6,370.9L1244.2,385.0L1264.7,397.5L1279.5,405.7L1283.7,407.1L1285.9,408.3L1301.3,420.1L1320.8,429.6L1330.2,441.0L1328.4,452.2L1296.3,491.1L1294.0,492.6L1291.8,494.6L1290.7,497.3L1291.4,507.2L1290.7,510.1L1286.9,514.9L1281.2,517.2L1274.2,517.9L1266.1,517.9L1259.8,516.2L1246.3,509.1L1241.4,507.9L1235.7,510.9L1236.6,515.5L1238.4,521.0L1235.5,526.5L1231.3,531.0L1228.7,536.2L1223.4,552.8L1221.5,555.8L1217.7,556.9L1188.8,558.7L1182.9,557.0L1182.1,546.6L1173.8,532.7L1162.5,519.3L1152.4,510.1L1141.7,504.1L1127.5,499.3L1113.2,497.7L1096.8,503.1L1071.9,504.0L1065.4,503.1L1050.5,499.1L1043.7,498.2L1037.8,496.7L1027.9,490.0L1020.4,488.4L1013.8,489.5L1007.1,491.3L1000.4,491.7L993.5,488.4L986.4,493.7L942.0,496.4L928.8,500.3L921.8,500.4L903.1,490.1L895.5,486.9L890.5,486.5L888.4,489.1L888.5,492.4L889.2,495.6L888.2,498.2L885.2,499.0L880.4,499.0L876.0,498.3L874.0,497.3L868.3,489.5L865.6,487.4L863.0,486.8L810.4,482.1L800.9,482.5L799.4,482.6L793.9,483.9L783.2,488.0L774.4,492.8L771.0,494.1L761.9,496.4L758.4,497.9L754.1,499.6L746.4,505.0L740.7,512.2L738.4,520.8L736.6,523.1L728.8,526.4L727.0,528.5L725.6,531.7L714.1,540.2L705.8,547.8L701.1,551.0L699.0,550.2L690.7,550.4L684.4,551.3L680.2,553.2L674.1,550.2L667.7,549.1L624.0,549.3L616.7,551.1L602.7,557.4L594.7,558.8L571.0,558.8L565.5,557.0L565.1,554.6L567.5,552.7L570.7,551.0L572.3,549.3L571.3,546.2L569.0,544.5L566.6,543.4L564.0,540.6L557.5,537.2L556.0,534.5L556.9,531.7L558.9,530.4L561.2,529.4L563.0,527.4L564.6,521.7L564.8,515.7L563.8,510.4L561.9,507.0L554.4,499.5L549.9,496.9L542.0,494.5L535.3,493.2L526.8,492.7L519.5,494.3L516.4,499.2L517.6,505.2L516.7,507.6L506.6,515.6L503.8,517.0L500.1,517.9L496.1,517.7L489.0,516.0L485.9,515.7L483.2,516.6L478.5,519.2L475.3,519.8L471.0,519.4L469.4,520.1L466.1,522.7L465.1,523.7L463.0,527.3L462.6,528.5L461.7,529.6L457.1,530.8L455.4,531.5L446.3,540.1L441.4,542.4L433.3,543.2L430.1,542.2L427.9,539.9L426.2,537.1L423.9,534.5L420.4,532.4L416.7,531.1L401.9,528.6L395.1,528.5L389.7,530.2L387.6,534.5L386.9,536.9L383.8,541.1L383.1,544.3L383.8,548.0L385.4,550.0L387.7,551.8L390.1,554.9L395.7,570.5L397.5,573.1L397.5,576.5L390.9,584.6L385.2,596.1L352.9,633.8L350.1,640.2L348.7,642.5L345.4,644.3L338.7,647.2L334.5,650.0L331.5,652.8L329.1,656.2L327.0,661.0L324.5,660.3L323.5,659.8L322.1,658.9L321.6,660.9L321.1,661.7L319.8,662.6L322.1,662.6L320.7,665.0L319.0,666.8L316.8,668.0L314.1,668.4L312.8,669.6L310.6,675.3L309.3,677.4L305.1,682.2L293.6,709.0L290.1,714.2L276.0,730.1L272.6,728.8L269.6,726.5L269.5,725.3L266.1,723.0L242.7,692.1L236.9,687.1L225.5,683.6L198.2,686.5L186.5,684.2L189.8,682.2L200.7,673.1L203.0,669.5L202.5,663.3L201.1,659.0L195.8,650.9L192.2,646.4L191.4,644.7L191.2,641.3L193.5,630.5L191.0,625.5L185.0,619.9L172.5,611.7L153.4,605.9L157.5,597.3L158.8,592.3L158.0,584.0L158.2,579.3L157.4,576.1L153.8,567.9L153.2,565.2L154.2,559.6L156.9,554.2L172.1,533.4L172.3,533.2L176.3,527.6L175.5,526.8L172.4,524.6L167.5,522.0L149.2,516.5L136.3,509.7L133.5,507.1L128.4,501.0L125.5,499.0L112.2,496.3L107.0,494.1L105.0,488.8L106.3,485.7L108.8,484.5L110.7,482.9L109.8,478.6L107.6,475.9L76.7,450.7L73.7,446.1L79.6,442.5L92.3,440.4L117.9,444.2L131.1,440.6L135.6,436.8L142.6,427.2L147.3,423.1L148.1,422.7L150.5,421.5L159.6,417.0L164.4,413.9L168.5,408.6L170.8,403.7L172.5,398.4L173.0,393.1L170.3,381.8L169.9,370.3L168.0,365.0L165.5,362.4L157.7,356.7L154.6,353.8L149.7,345.7L146.6,343.7L138.6,343.5L130.1,345.8L124.0,346.5L123.0,341.6L128.9,338.4L146.4,334.7L150.9,332.5L165.7,319.5L175.9,308.1L181.1,304.4L192.6,297.8L197.0,292.8L198.7,287.9L200.3,270.8L195.9,269.2L173.8,260.6L162.6,251.5L161.1,250.3L155.0,243.6L153.3,237.9L155.6,236.1L164.8,231.9L168.0,229.9L172.4,221.2L174.3,219.5L178.1,213.0L178.4,200.2L174.3,177.9L164.8,160.0L163.2,153.5L163.8,146.0L164.1,141.5L162.9,136.4L159.9,128.5Z M239.4,747.0L233.7,744.4L233.6,738.2L236.7,731.1L240.5,725.3L245.4,727.5L250.3,730.4L259.0,737.1L253.7,738.4L245.2,745.4L239.4,747.0Z M1215.7,568.8L1233.4,568.3L1238.0,569.7L1241.5,573.3L1245.3,578.9L1247.8,584.1L1247.2,586.3L1242.0,585.4L1231.0,581.4L1225.3,580.5L1219.2,581.1L1208.6,583.7L1202.8,584.4L1190.8,581.8L1182.3,575.7L1176.8,568.0L1173.8,560.9L1178.9,559.8L1184.8,560.7L1190.8,563.0L1195.8,565.9L1199.8,567.0L1215.7,568.8Z" fill-rule="evenodd" class="map-country" /></g>
  <g class="map-pins">
    <g class="map-pin-group" style="--pin-delay: 200ms"><circle cx="521" cy="203" r="14" class="map-pin-halo" /><circle cx="521" cy="203" r="7"  class="map-pin"><title>Santiago</title></circle></g>
    <g class="map-pin-group" style="--pin-delay: 230ms"><circle cx="579" cy="268" r="14" class="map-pin-halo" /><circle cx="579" cy="268" r="7"  class="map-pin"><title>La Vega</title></circle></g>
    <g class="map-pin-group" style="--pin-delay: 260ms"><circle cx="997" cy="485" r="14" class="map-pin-halo" /><circle cx="997" cy="485" r="7"  class="map-pin"><title>San Pedro de Macorís</title></circle></g>
    <g class="map-pin-group" style="--pin-delay: 290ms"><circle cx="525" cy="105" r="14" class="map-pin-halo" /><circle cx="525" cy="105" r="7"  class="map-pin"><title>Puerto Plata</title></circle></g>
    <g class="map-pin-group" style="--pin-delay: 320ms"><circle cx="1111" cy="495" r="14" class="map-pin-halo" /><circle cx="1111" cy="495" r="7"  class="map-pin"><title>La Romana</title></circle></g>
    <g class="map-pin-group" style="--pin-delay: 350ms"><circle cx="1201" cy="441" r="14" class="map-pin-halo" /><circle cx="1201" cy="441" r="7"  class="map-pin"><title>Higüey</title></circle></g>
    <g class="map-pin-group" style="--pin-delay: 380ms"><circle cx="385" cy="558" r="14" class="map-pin-halo" /><circle cx="385" cy="558" r="7"  class="map-pin"><title>Barahona</title></circle></g>
    <g class="map-pin-group" style="--pin-delay: 410ms"><circle cx="724" cy="498" r="14" class="map-pin-halo" /><circle cx="724" cy="498" r="7"  class="map-pin"><title>San Cristóbal</title></circle></g>
    <g class="map-pin-group" style="--pin-delay: 440ms"><circle cx="620" cy="349" r="14" class="map-pin-halo" /><circle cx="620" cy="349" r="7"  class="map-pin"><title>Bonao</title></circle></g>
    <g class="map-pin-group" style="--pin-delay: 470ms"><circle cx="509" cy="487" r="14" class="map-pin-halo" /><circle cx="509" cy="487" r="7"  class="map-pin"><title>Azua</title></circle></g>
    <g class="map-pin-group" style="--pin-delay: 500ms"><circle cx="392" cy="173" r="14" class="map-pin-halo" /><circle cx="392" cy="173" r="7"  class="map-pin"><title>Mao</title></circle></g>
    <g class="map-pin-group" style="--pin-delay: 530ms"><circle cx="674" cy="246" r="14" class="map-pin-halo" /><circle cx="674" cy="246" r="7"  class="map-pin"><title>San Francisco de Macorís</title></circle></g>
    <g class="map-pin-group" style="--pin-delay: 560ms"><circle cx="647" cy="537" r="14" class="map-pin-halo" /><circle cx="647" cy="537" r="7"  class="map-pin"><title>Baní</title></circle></g>
    <g class="map-pin-group" style="--pin-delay: 590ms"><circle cx="815" cy="223" r="14" class="map-pin-halo" /><circle cx="815" cy="223" r="7"  class="map-pin"><title>Nagua</title></circle></g>
    <g class="map-pin-group" style="--pin-delay: 620ms"><circle cx="709" cy="315" r="14" class="map-pin-halo" /><circle cx="709" cy="315" r="7"  class="map-pin"><title>Cotuí</title></circle></g>
    <g class="map-pin-group" style="--pin-delay: 650ms"><circle cx="580" cy="219" r="14" class="map-pin-halo" /><circle cx="580" cy="219" r="7"  class="map-pin"><title>Moca</title></circle></g>
    <g class="map-pin-group" style="--pin-delay: 680ms"><circle cx="617" cy="223" r="14" class="map-pin-halo" /><circle cx="617" cy="223" r="7"  class="map-pin"><title>Salcedo</title></circle></g>
    <g class="map-pin-group" style="--pin-delay: 710ms"><circle cx="1012" cy="399" r="14" class="map-pin-halo" /><circle cx="1012" cy="399" r="7"  class="map-pin"><title>Hato Mayor</title></circle></g>
    <g class="map-pin-group" style="--pin-delay: 740ms"><circle cx="832" cy="386" r="14" class="map-pin-halo" /><circle cx="832" cy="386" r="7"  class="map-pin"><title>Monte Plata</title></circle></g>
    <g class="map-pin-group" style="--pin-delay: 770ms"><circle cx="986" cy="273" r="14" class="map-pin-halo" /><circle cx="986" cy="273" r="7"  class="map-pin"><title>Samaná</title></circle></g>
    <g class="map-pin-group" style="--pin-delay: 800ms"><circle cx="504" cy="357" r="14" class="map-pin-halo" /><circle cx="504" cy="357" r="7"  class="map-pin"><title>Constanza</title></circle></g>
    <g class="map-pin-group" style="--pin-delay: 830ms"><circle cx="544" cy="298" r="14" class="map-pin-halo" /><circle cx="544" cy="298" r="7"  class="map-pin"><title>Jarabacoa</title></circle></g>
    <g class="map-pin-group" style="--pin-delay: 860ms"><circle cx="177" cy="175" r="14" class="map-pin-halo" /><circle cx="177" cy="175" r="7"  class="map-pin"><title>Dajabón</title></circle></g>
    <g class="map-pin-group" style="--pin-delay: 890ms"><circle cx="177" cy="368" r="14" class="map-pin-halo" /><circle cx="177" cy="368" r="7"  class="map-pin"><title>Comendador</title></circle></g>
    <g class="map-pin-group" style="--pin-delay: 920ms"><circle cx="163" cy="606" r="14" class="map-pin-halo" /><circle cx="163" cy="606" r="7"  class="map-pin"><title>Pedernales</title></circle></g>
    <g class="map-pin-group" style="--pin-delay: 950ms"><circle cx="299" cy="193" r="14" class="map-pin-halo" /><circle cx="299" cy="193" r="7"  class="map-pin"><title>Sabaneta</title></circle></g>
    <g class="map-pin-group" style="--pin-delay: 980ms"><circle cx="767" cy="463" r="14" class="map-pin-halo" /><circle cx="767" cy="463" r="7"  class="map-pin"><title>Hato Nuevo</title></circle></g>
    <g class="map-pin-group" style="--pin-delay: 1010ms"><circle cx="892" cy="488" r="14" class="map-pin-halo" /><circle cx="892" cy="488" r="7"  class="map-pin"><title>Boca Chica</title></circle></g>
    <g class="map-pin-group" style="--pin-delay: 1040ms"><circle cx="583" cy="115" r="14" class="map-pin-halo" /><circle cx="583" cy="115" r="7"  class="map-pin"><title>Sosúa</title></circle></g>
    <g class="map-pin-group" style="--pin-delay: 1070ms"><circle cx="635" cy="537" r="14" class="map-pin-halo" /><circle cx="635" cy="537" r="7"  class="map-pin"><title>Nizao</title></circle></g>
    <g class="map-pin-capital" style="--pin-delay: 0ms"><circle cx="783" cy="478" r="22" class="map-pin-capital-halo" /><circle cx="783" cy="478" r="13" class="map-pin-capital-ring" /><circle cx="783" cy="478" r="6"  class="map-pin-capital-dot"><title>Santo Domingo (HQ)</title></circle></g>
  </g>
</svg>